<svg width="58" height="63" viewBox="0 0 58 63" fill="none" xmlns="http://www.w3.org/2000/svg">
<g filter="url(#filter0_d_1_51)">
<path d="M28.9584 48.0375C18.5581 48.0375 10.0917 38.4567 10.0917 26.6875C10.0917 14.9183 18.5581 5.3375 28.9584 5.3375C39.3587 5.3375 47.8251 14.9183 47.8251 26.6875C47.8251 38.4567 39.3587 48.0375 28.9584 48.0375ZM28.9584 0C25.8614 0 22.7947 0.690292 19.9334 2.03146C17.0721 3.37264 14.4723 5.33842 12.2824 7.81659C7.85967 12.8215 5.375 19.6095 5.375 26.6875C5.375 33.7655 7.85967 40.5535 12.2824 45.5584C14.4723 48.0366 17.0721 50.0024 19.9334 51.3435C22.7947 52.6847 25.8614 53.375 28.9584 53.375C35.2131 53.375 41.2116 50.5633 45.6343 45.5584C50.0571 40.5535 52.5418 33.7655 52.5418 26.6875C52.5418 23.1828 51.9318 19.7125 50.7466 16.4746C49.5614 13.2368 47.8243 10.2948 45.6343 7.81659C43.4444 5.33842 40.8446 3.37264 37.9834 2.03146C35.1221 0.690292 32.0554 0 28.9584 0ZM17.1667 29.3562H40.7501V24.0187H17.1667" fill="#F15252"/>
</g>
<defs>
<filter id="filter0_d_1_51" x="0.845493" y="0" width="56.2258" height="62.434" filterUnits="userSpaceOnUse" color-interpolation-filters="sRGB">
<feFlood flood-opacity="0" result="BackgroundImageFix"/>
<feColorMatrix in="SourceAlpha" type="matrix" values="0 0 0 0 0 0 0 0 0 0 0 0 0 0 0 0 0 0 127 0" result="hardAlpha"/>
<feOffset dy="4.52951"/>
<feGaussianBlur stdDeviation="2.26475"/>
<feComposite in2="hardAlpha" operator="out"/>
<feColorMatrix type="matrix" values="0 0 0 0 0 0 0 0 0 0 0 0 0 0 0 0 0 0 0.25 0"/>
<feBlend mode="normal" in2="BackgroundImageFix" result="effect1_dropShadow_1_51"/>
<feBlend mode="normal" in="SourceGraphic" in2="effect1_dropShadow_1_51" result="shape"/>
</filter>
</defs>
</svg>
