<svg width="49" height="56" viewBox="0 0 49 56" fill="none" xmlns="http://www.w3.org/2000/svg">
<path d="M24.3566 49.7375C13.6153 49.7375 4.87132 39.8426 4.87132 27.6875C4.87132 15.5324 13.6153 5.6375 24.3566 5.6375C35.0979 5.6375 43.8419 15.5324 43.8419 27.6875C43.8419 39.8426 35.0979 49.7375 24.3566 49.7375ZM24.3566 0.125C21.1581 0.125 17.9908 0.837925 15.0357 2.22307C12.0807 3.60822 9.39561 5.63845 7.13389 8.19787C2.56614 13.3668 0 20.3775 0 27.6875C0 34.9975 2.56614 42.0082 7.13389 47.1771C9.39561 49.7365 12.0807 51.7668 15.0357 53.1519C17.9908 54.5371 21.1581 55.25 24.3566 55.25C30.8164 55.25 37.0116 52.3461 41.5793 47.1771C46.1471 42.0082 48.7132 34.9975 48.7132 27.6875C48.7132 24.0679 48.0832 20.4838 46.8592 17.1398C45.6351 13.7957 43.841 10.7573 41.5793 8.19787C39.3176 5.63845 36.6326 3.60822 33.6775 2.22307C30.7224 0.837925 27.5552 0.125 24.3566 0.125ZM26.7923 13.9062H21.9209V24.9312H12.1783V30.4437H21.9209V41.4687H26.7923V30.4437H36.5349V24.9312H26.7923V13.9062Z" fill="#30C03F"/>
</svg>
